<svg data-v-0dd9719b="" version="1.0" xmlns="http://www.w3.org/2000/svg" xmlns:xlink="http://www.w3.org/1999/xlink" width="100%" height="100%" viewBox="0 0 340.000000 250.000000" preserveAspectRatio="xMidYMid meet" color-interpolation-filters="sRGB" style="margin: auto;"> <rect data-v-0dd9719b="" x="0" y="0" width="100%" height="100%" fill="#ffffff" fill-opacity="1" class="background"></rect> <rect data-v-0dd9719b="" x="0" y="0" width="100%" height="100%" fill="url(#watermark)" fill-opacity="1" class="watermarklayer"></rect> <g data-v-0dd9719b="" fill="#333333" class="icon-text-wrapper icon-svg-group iconsvg" transform="translate(52.51304626464844,95)"><g class="iconsvg-imagesvg" transform="translate(0,0)"><g><rect fill="#333333" fill-opacity="0" stroke-width="2" x="0" y="0" width="60" height="60" class="image-rect"></rect> <svg x="0" y="0" width="60" height="60" filtersec="colorsb3206671516" class="image-svg-svg primary" style="overflow: visible;"><svg xmlns="http://www.w3.org/2000/svg" viewBox="-0.053900331258773804 -0.006093347445130348 75.0999984741211 75.0999984741211"><g><g><path d="M66.41 13.59L61.51 32A24.62 24.62 0 1 1 43 13.53l18.43-4.92a37.55 37.55 0 1 0 5 5z" fill="#333333"></path><path d="M58.14 32.69L64.05 11l-21.67 5.9a21.2 21.2 0 1 0 15.76 15.79zM31.88 43.15a8 8 0 1 1 11.29 0 8 8 0 0 1-11.29 0z" fill="#fd5f00"></path></g></g></svg></svg> <!----></g></g> <g transform="translate(67,3.933748245239258)"><g data-gra="path-name" fill-rule="" class="tp-name iconsvg-namesvg" transform="translate(0,0)"><g transform="scale(1)"><g><path d="M35.01-30.3L35.01-24.97 5.29-24.97 5.29-30.3 35.01-30.3ZM33.25-17.51L33.25-12.34 7.05-12.34 7.05-17.51 33.25-17.51ZM37.76-3.4L37.76 1.84 2.54 1.84 2.54-3.4 37.76-3.4ZM67.4-2.25L78.27-2.25 78.27 2.71 42.8 2.71 42.8-2.25 53.55-2.25 53.55-8.36 49.86-6.03Q49.49-6.97 48.97-8.24 48.46-9.51 47.85-10.95 47.23-12.38 46.58-13.86 45.92-15.33 45.33-16.65 44.73-17.96 44.22-19 43.71-20.05 43.38-20.62L43.38-20.62 47.77-22.96Q48.18-22.35 48.89-20.95 49.61-19.56 50.45-17.86 51.29-16.15 52.11-14.37 52.93-12.59 53.55-11.11L53.55-11.11 53.55-26.4 44.44-26.4 44.44-31.45 76.63-31.45 76.63-26.4 67.4-26.4 67.4-11.19Q68.27-12.63 69.09-14.19 69.91-15.74 70.64-17.28 71.38-18.82 72.02-20.27 72.65-21.73 73.1-22.96L73.1-22.96 77.49-20.71Q77.04-19.31 76.24-17.43 75.44-15.54 74.46-13.53 73.47-11.52 72.43-9.61 71.38-7.71 70.48-6.31L70.48-6.31 67.4-8.12 67.4-2.25ZM58.71-26.4L58.71-2.25 62.32-2.25 62.32-26.4 58.71-26.4ZM113.41-6.15L97.01-6.15 97.01-19.07 92.58-19.07 92.58-1.93 117.51-1.93 117.51 2.99 87.25 2.99 87.25-19.07 82.66-19.07 82.66-24.15 87.25-24.15 87.25-31.49 92.58-31.28 92.58-24.15 97.01-24.15 97.01-32.47 102.21-32.27 102.21-24.15 108.2-24.15 108.2-32.51 113.41-32.31 113.41-24.15 118.98-24.15 118.98-19.07 113.41-19.07 113.41-6.15ZM108.2-19.07L102.21-19.07 102.21-11.11 108.2-11.11 108.2-19.07ZM149.61-0.98L149.61-0.98Q152.11-0.9 154.61-0.92 157.11-0.94 159.61-1.07L159.61-1.07 158.55 3.12Q153.79 3.44 149.12 3.24L149.12 3.24Q147.44 3.2 145.96 3.01 144.48 2.83 143.17 2.4 141.86 1.97 140.71 1.25 139.56 0.53 138.54-0.61L138.54-0.61Q137.76 0.78 136.69 2.07 135.63 3.36 134.19 4.63L134.19 4.63 131.16 2.01Q130.71 2.67 129.89 3.01 129.07 3.36 127.88 3.53L127.88 3.53 125.46 3.85 124.07-0.86 125.91-1.15Q126.9-1.31 127.26-1.66 127.63-2.01 127.63-2.95L127.63-2.95 127.63-10.37Q126.36-9.92 125.28-9.53 124.19-9.14 123.41-8.81L123.41-8.81 122.43-13.49Q123.49-13.86 124.85-14.31 126.2-14.76 127.63-15.25L127.63-15.25 127.63-21.48 124.07-21.48 124.07-25.87 127.63-25.87 127.63-32.51 132.02-32.31 132.02-25.87 134.89-25.87 134.89-21.48 132.02-21.48 132.02-16.81Q132.51-17.02 132.94-17.18 133.37-17.34 133.78-17.51L133.78-17.51 134.07-15.7 134.56-12.92Q134.03-12.71 133.37-12.48 132.72-12.26 132.02-11.97L132.02-11.97 132.02-1.97Q132.02-1.27 131.98-0.68 131.94-0.08 131.81 0.41L131.81 0.41Q132.84-0.49 133.62-1.46 134.4-2.42 134.93-3.51 135.46-4.59 135.77-5.86 136.08-7.13 136.2-8.69L136.2-8.69 140.63-8.12Q140.55-7.42 140.45-6.77 140.34-6.11 140.22-5.45L140.22-5.45Q140.88-4.39 141.72-3.57 142.56-2.75 143.71-2.17L143.71-2.17 143.71-9.18 135.83-9.18 135.83-13.08 143.71-13.08 143.71-14.72 134.97-14.72 134.97-18.61 143.71-18.61 143.71-20.21 136.08-20.21 136.08-24.15 143.71-24.15 143.71-25.63 135.51-25.63 135.51-29.81 143.71-29.81 143.71-32.55 148.22-32.35 148.22-29.81 157.6-29.81 157.6-25.63 148.22-25.63 148.22-24.15 156.58-24.15 156.58-18.61 158.67-18.61 158.67-14.72 156.58-14.72 156.58-9.18 148.22-9.18 148.22-7.54 157.07-7.54 157.07-3.49 148.22-3.49 148.22-1.07Q148.54-1.03 148.89-1 149.24-0.98 149.61-0.98ZM148.22-20.21L148.22-18.61 152.23-18.61 152.23-20.21 148.22-20.21ZM148.22-14.72L148.22-13.08 152.23-13.08 152.23-14.72 148.22-14.72Z" transform="translate(-2.5399999618530273, 32.54999923706055)"></path></g> <!----> <!----> <!----> <!----> <!----> <!----> <!----></g></g> <g data-gra="path-slogan" fill-rule="" class="tp-slogan iconsvg-slogansvg" fill="#FD5F00" transform="translate(-10.90582275390625,42.18000030517578)"><rect width="0"></rect> <rect x="181.88165283203125" width="0"></rect> <g transform="translate(0,0)"><g transform="scale(1)"><path d="M7.17-6.09L7.17-6.09L6.09-6.09Q6-7.73 3.94-7.83L3.94-7.83Q2.02-7.78 2.02-6.33L2.02-6.33Q2.02-5.39 3.05-5.25L3.05-5.25L5.48-4.69Q7.41-4.22 7.41-2.34L7.41-2.34Q7.36 0.05 4.03 0.14L4.03 0.14Q2.20 0.14 1.45-0.61L1.45-0.61Q0.52-1.31 0.56-2.77L0.56-2.77L1.69-2.77Q1.73-0.80 4.03-0.75L4.03-0.75Q6.28-0.80 6.33-2.20L6.33-2.20Q6.52-3.38 4.45-3.75L4.45-3.75L2.67-4.13Q0.84-4.64 0.84-6.19L0.84-6.19Q0.98-8.72 3.84-8.81L3.84-8.81Q7.08-8.81 7.17-6.09ZM23.53 0L22.69-2.48L19.22-2.48L18.33 0L17.16 0L20.39-8.58L21.70-8.58L24.80 0L23.53 0ZM20.95-7.31L19.59-3.52L22.27-3.52L21-7.31L20.95-7.31ZM36.23-8.58L40.55-1.64L40.55-8.58L41.67-8.58L41.67 0L40.36 0L36-6.94L35.95-6.94L35.95 0L34.83 0L34.83-8.58L36.23-8.58ZM59.39-8.58L56.16-3.47L56.16 0L54.98 0L54.98-3.47L51.75-8.58L53.11-8.58L55.55-4.45L58.03-8.58L59.39-8.58ZM75.09 0L74.25-2.48L70.78-2.48L69.89 0L68.72 0L71.95-8.58L73.27-8.58L76.36 0L75.09 0ZM72.52-7.31L71.16-3.52L73.83-3.52L72.56-7.31L72.52-7.31ZM105-6.09L105-6.09L103.92-6.09Q103.83-7.73 101.77-7.83L101.77-7.83Q99.84-7.78 99.84-6.33L99.84-6.33Q99.84-5.39 100.88-5.25L100.88-5.25L103.31-4.69Q105.23-4.22 105.23-2.34L105.23-2.34Q105.19 0.05 101.86 0.14L101.86 0.14Q100.03 0.14 99.28-0.61L99.28-0.61Q98.34-1.31 98.39-2.77L98.39-2.77L99.52-2.77Q99.56-0.80 101.86-0.75L101.86-0.75Q104.11-0.80 104.16-2.20L104.16-2.20Q104.34-3.38 102.28-3.75L102.28-3.75L100.50-4.13Q98.67-4.64 98.67-6.19L98.67-6.19Q98.81-8.72 101.67-8.81L101.67-8.81Q104.91-8.81 105-6.09ZM116.86-5.06L121.36-5.06L121.36-8.58L122.53-8.58L122.53 0L121.36 0L121.36-3.98L116.86-3.98L116.86 0L115.69 0L115.69-8.58L116.86-8.58L116.86-5.06ZM133.50-8.58L134.67-8.58L134.67 0L133.50 0L133.50-8.58ZM144.94-1.92L144.94-2.77L146.02-2.77L146.02-2.16Q146.02-0.75 147.33-0.75L147.33-0.75Q148.69-0.75 148.69-2.25L148.69-2.25L148.69-8.58L149.86-8.58L149.86-2.30Q149.81 0.09 147.38 0.14L147.38 0.14Q145.08 0.09 144.94-1.92L144.94-1.92ZM160.83-8.58L162-8.58L162 0L160.83 0L160.83-8.58ZM174.28-1.03L179.44-1.03L179.44 0L173.11 0L173.11-8.58L179.34-8.58L179.34-7.59L174.28-7.59L174.28-4.92L178.97-4.92L178.97-3.89L174.28-3.89L174.28-1.03Z" transform="translate(-0.5602678571428572, 8.8125)"></path></g></g></g></g></g><defs v-gra="od"></defs></svg>